# 3ds Max Wavefront OBJ Exporter v0.97b - (c)2007 guruware
# File Created: 30.03.2018 09:54:20

mtllib google poly green 1.mtl

#
# object default
#

v  9.3479 -1.1443 10.3931
v  9.3584 -1.1054 10.7581
v  6.9045 -21.5275 9.0451
v  -4.3876 -23.1707 -5.0343
v  -3.3287 -20.8778 11.0909
v  -9.2322 -3.3624 11.5346
v  -9.7524 -5.2883 -6.5178
v  -9.7690 -5.3500 -7.0952
v  8.6610 -3.1125 -7.8650
v  -2.1589 6.1544 3.1664
v  6.6590 -22.0412 -6.0056
v  -0.0144 -15.2609 -6.4482
v  2.0223 -14.6214 1.4611
v  0.7315 -19.3854 -5.8465
v  1.3620 -19.3237 10.2992
v  -8.2751 -3.2462 11.4946
v  8.7572 -5.3685 -9.7455
v  1.5810 -15.5347 9.8664
v  -26.3854 10.5309 1.2452
v  -16.6718 1.5944 -13.7662
v  -17.4053 1.1810 -13.6363
v  -2.7555 -21.5811 -4.7866
v  -3.3691 -21.2385 -4.9319
v  -2.1155 -19.6650 7.1349
v  -1.7331 -19.6318 7.0319
v  -13.0299 4.1287 14.8587
v  -13.7635 3.7153 14.9886
v  -4.7991 -20.6807 1.2510
v  -5.0653 -20.2958 1.2510
v  -65.7116 13.7161 1.3826
v  25.0329 14.0561 -0.5523
v  15.2770 5.5457 14.6778
v  16.0584 5.2087 14.6367
v  4.6360 -19.8282 7.3066
v  5.1968 -19.4050 7.4531
v  4.6605 -19.1512 -4.7659
v  4.2703 -19.1523 -4.6906
v  13.4720 4.8864 -14.2251
v  14.2534 4.5494 -14.2663
v  7.0036 -19.2827 1.3452
v  7.2259 -18.8716 1.3218
v  63.6900 21.7066 1.3989
v  -2.1514 12.4934 19.6516
v  0.8603 13.0783 19.8930
v  2.2883 18.0222 21.7038
v  -3.3789 -15.9203 9.4903
v  0.3289 -15.6701 8.3636
v  -2.7660 -18.2296 11.5057
v  4.5632 12.9008 19.9384
v  2.3137 13.0424 20.2942
v  4.7610 -19.8451 10.5558
v  1.6701 13.6801 16.4600
v  -0.6857 22.5241 23.5889
v  2.2904 13.3552 20.3868
v  2.0316 13.3771 20.1774
v  3.0349 -16.6218 10.2626
v  3.0326 12.9286 28.8727
v  2.8454 12.4780 29.3307
v  -0.9943 -13.8254 6.2842
v  5.6292 13.2055 19.1901
v  -0.2745 -13.3157 5.3076
v  0.7988 12.6576 19.7421
v  -1.2998 -1.6979 14.5923
v  0.2440 7.0957 18.5194
v  0.5189 8.8966 19.2004
v  1.0190 13.0257 20.3717
v  1.0316 13.1304 20.4014
v  0.4274 8.1403 18.9859
v  1.5607 13.4796 19.8243
v  4.9342 22.3533 22.1808
v  1.3158 21.6157 18.7253
v  0.4429 8.4814 -19.2197
v  0.4666 10.3201 -20.3485
v  -0.9379 14.7901 -23.1426
v  4.5707 -15.9509 -4.2210
v  0.8503 -15.4839 -3.2112
v  3.9801 -18.6229 -5.7318
v  -3.2356 10.1301 -20.3993
v  -0.9821 10.2006 -20.7506
v  -3.5582 -20.0257 -4.5598
v  -0.3826 11.6056 -17.1189
v  -0.7575 17.7462 -24.5101
v  -0.9576 10.4882 -20.9046
v  -0.7012 10.5527 -20.7011
v  -1.8340 -16.8068 -4.9080
v  2.1501 -13.2526 -1.5352
v  -4.3101 10.5785 -19.7408
v  1.4192 -12.5564 -0.6909
v  0.5261 9.9389 -20.1145
v  2.5578 -3.0663 -12.1307
v  1.0641 4.7427 -17.7806
v  0.7979 6.3670 -18.8166
v  0.3135 10.1710 -20.8083
v  0.3012 10.2674 -20.8588
v  0.8866 5.6703 -18.4517
v  -0.2344 10.7257 -20.3708
v  -6.9260 40.3495 -37.3704
v  -2.8405 18.6348 -20.4771
v  -5.2932 30.4204 -30.9510
# 99 vertices

vn 0.9929 -0.1180 -0.0160
vn 0.0000 0.0000 -0.0000
vn 0.5781 0.8094 -0.1030
vn -0.0301 -0.0946 -0.9951
vn -0.8326 -0.5530 0.0325
vn 0.0814 -0.6409 0.7633
vn 0.7862 -0.6169 0.0361
vn -0.1698 -0.7806 -0.6015
vn -0.1241 0.9870 -0.1017
vn -0.8356 0.5492 0.0063
vn -0.0345 0.6752 0.7368
vn -0.1336 0.6904 -0.7110
vn -0.0729 -0.1363 -0.9880
vn 0.9918 -0.1275 -0.0118
vn 0.2555 0.0951 0.9621
vn 0.0524 -0.0897 0.9946
vn 0.9929 -0.1187 -0.0042
vn 0.9956 0.0809 -0.0462
vn -0.9837 0.0886 -0.1567
vn 0.1984 0.0421 0.9792
vn 0.1316 0.1050 0.9857
vn -0.0985 -0.1611 -0.9820
vn -0.0442 -0.1521 -0.9874
vn -0.4678 0.6377 -0.6119
vn 0.0329 -0.3523 -0.9353
vn 0.2738 -0.1895 0.9429
vn -0.2947 0.7203 0.6279
vn 0.7219 0.5090 -0.4688
vn -0.8632 -0.4813 0.1524
vn 0.8039 0.5658 0.1833
vn 0.0681 0.8628 -0.5010
vn 0.0758 0.9193 0.3863
vn -0.2164 -0.9697 0.1134
vn -0.3647 0.9274 -0.0831
vn -0.4512 -0.8773 -0.1633
vn 0.1459 -0.9618 0.2317
vn 0.4129 0.6198 0.6673
vn -0.1048 -0.3825 0.9180
vn -0.1963 -0.1602 -0.9674
vn 0.3386 0.7416 -0.5791
vn -0.7607 0.4902 0.4256
vn 0.8761 -0.4720 -0.0982
vn -0.7908 0.5677 -0.2289
vn -0.1141 0.8458 0.5211
vn -0.0514 0.9309 -0.3616
vn 0.2318 -0.9645 -0.1265
vn 0.3501 0.9260 0.1414
vn 0.4431 -0.8800 0.1709
vn -0.1200 -0.9545 -0.2731
vn -0.1307 -0.3075 0.9425
vn -0.1730 -0.6733 -0.7189
vn 0.2349 -0.2599 0.9366
vn -0.6617 0.3558 -0.6600
vn -0.6200 -0.2648 0.7385
vn 0.0302 -0.3690 0.9289
vn 0.3898 -0.7311 -0.5599
vn 0.2992 -0.6113 -0.7327
vn -0.6652 0.2768 -0.6935
vn 0.5727 0.1889 -0.7977
vn 0.2112 0.7940 0.5700
vn -0.0884 -0.8548 -0.5113
vn -0.1254 -0.7977 -0.5898
vn -0.8457 0.2547 -0.4691
vn 0.8637 0.1380 -0.4847
vn 0.7847 -0.2553 0.5649
vn -0.6147 -0.2660 0.7426
vn 0.5201 0.2031 -0.8296
vn 0.1336 -0.2722 0.9529
vn -0.0102 -0.3363 0.9417
vn -0.0363 -0.3327 0.9423
vn -0.9481 0.0249 0.3169
vn -0.6255 -0.2122 0.7508
vn 0.7866 -0.3394 0.5158
vn 0.6010 -0.2067 0.7720
vn -0.6410 0.5261 0.5589
vn -0.8518 -0.4514 -0.2659
vn -0.9401 0.1616 0.3002
vn -0.6154 -0.2152 0.7583
vn 0.1344 -0.2691 0.9537
vn 0.2110 -0.2335 0.9492
vn -0.1626 0.7358 0.6574
vn 0.6313 0.2839 -0.7217
vn 0.8012 -0.4454 -0.3997
vn 0.8517 0.4515 0.2662
vn 0.6016 -0.2167 0.7688
vn 0.5699 0.2490 -0.7831
vn -0.9177 0.0706 -0.3909
vn 0.9176 -0.1720 0.3583
vn -0.0291 0.5232 0.8517
vn 0.1643 -0.5128 0.8426
vn -0.2241 -0.4453 -0.8669
vn 0.9767 0.1870 0.1058
vn 0.6284 -0.4082 -0.6622
vn 0.4539 -0.3968 -0.7978
vn -0.3080 -0.4502 0.8382
vn 0.9752 0.2091 0.0723
vn -0.5818 0.3460 0.7360
vn -0.2041 0.6612 -0.7219
vn 0.0821 -0.7329 0.6754
vn 0.1182 -0.6610 0.7411
vn 0.8403 0.3463 0.4172
vn -0.8692 0.2321 0.4366
vn -0.7782 -0.3662 -0.5102
vn 0.6231 -0.4102 -0.6659
vn -0.5296 0.3665 0.7650
vn -0.1226 -0.4605 -0.8792
vn 0.0001 0.5232 0.8522
vn 0.9518 -0.0382 -0.3045
vn 0.6341 -0.3592 -0.6848
vn -0.7807 -0.4386 -0.4450
vn -0.5956 -0.4474 -0.6672
vn 0.9830 0.0471 -0.1772
vn 0.0981 -0.4228 -0.9009
vn 0.9436 0.0990 -0.3160
vn 0.6240 -0.3636 -0.6916
vn -0.1234 -0.4575 -0.8806
vn -0.0383 -0.4929 -0.8693
vn -0.8623 0.1998 0.4654
vn 0.6987 0.4659 0.5429
vn 0.8259 0.4607 0.3250
vn -0.5928 -0.3695 -0.7156
vn -0.5782 0.1782 0.7962
vn 0.8307 0.4482 0.3303
vn -0.9135 -0.2429 -0.3263
# 124 vertex normals

g default
usemtl mat8
s 1
f 1//1 2//1 3//1 
f 4//2 5//2 6//2 7//2 8//2 
f 9//3 10//3 1//3 
f 9//4 11//4 12//4 8//4 
f 11//5 3//5 13//5 
f 13//6 4//6 14//6 
f 4//7 13//7 5//7 
f 13//8 3//8 15//8 
f 7//9 6//9 16//9 
f 16//9 2//9 1//9 
f 9//9 8//9 7//9 
f 16//10 10//10 7//10 
f 1//11 10//11 16//11 
f 7//12 10//12 9//12 
f 12//13 4//13 8//13 
f 3//14 11//14 17//14 
f 18//15 15//15 3//15 
f 18//16 3//16 16//16 6//16 
f 2//16 16//16 3//16 
f 3//17 17//17 1//17 
f 1//18 17//18 9//18 
f 9//19 17//19 11//19 
f 18//20 6//20 5//20 
f 5//8 13//8 15//8 
f 5//21 15//21 18//21 
f 12//22 11//22 14//22 
f 11//6 13//6 14//6 
f 12//23 14//23 4//23 
f 19//24 20//24 21//24 
f 20//25 22//25 23//25 21//25 
f 24//26 25//26 26//26 27//26 
f 26//27 19//27 27//27 
f 26//28 25//28 28//28 29//28 19//28 
f 21//29 23//29 24//29 27//29 
f 29//30 22//30 20//30 19//30 
f 21//31 30//31 19//31 
f 19//32 30//32 27//32 
f 27//33 30//33 21//33 
f 23//34 28//34 24//34 
f 29//30 28//30 22//30 
f 22//35 28//35 23//35 
f 24//36 28//36 25//36 
f 31//37 32//37 33//37 
f 32//38 34//38 35//38 33//38 
f 36//39 37//39 38//39 39//39 
f 38//40 31//40 39//40 
f 38//41 37//41 40//41 41//41 31//41 
f 33//42 35//42 36//42 39//42 
f 41//43 34//43 32//43 31//43 
f 33//44 42//44 31//44 
f 31//45 42//45 39//45 
f 39//46 42//46 33//46 
f 35//47 40//47 36//47 
f 41//43 40//43 34//43 
f 34//48 40//48 35//48 
f 36//49 40//49 37//49 
f 43//50 44//50 45//50 
f 46//51 47//51 48//51 
f 49//52 50//52 51//52 
f 52//53 43//53 53//53 
f 54//54 55//54 56//54 51//54 50//54 
f 45//55 53//55 43//55 
f 57//56 58//56 45//56 
f 59//57 56//57 47//57 
f 46//58 43//58 52//58 
f 52//59 60//59 56//59 
f 61//60 59//60 47//60 
f 56//61 59//61 61//61 
f 46//62 61//62 47//62 
f 52//63 61//63 46//63 
f 56//64 61//64 52//64 
f 62//2 63//2 64//2 65//2 66//2 67//2 44//2 
f 68//65 48//65 47//65 66//65 65//65 
f 55//66 69//66 47//66 56//66 
f 60//67 51//67 56//67 
f 49//68 54//68 50//68 
f 63//69 62//69 43//69 46//69 
f 43//70 62//70 44//70 
f 64//71 63//71 46//71 48//71 68//71 
f 54//72 45//72 55//72 
f 69//65 67//65 66//65 
f 64//71 68//71 65//71 
f 69//73 45//73 67//73 
f 49//74 60//74 70//74 
f 71//75 57//75 70//75 
f 45//76 58//76 53//76 
f 67//77 45//77 44//77 
f 55//78 45//78 69//78 
f 49//79 45//79 54//79 
f 70//80 45//80 49//80 
f 71//81 58//81 57//81 
f 71//82 70//82 60//82 
f 45//83 70//83 57//83 
f 71//84 53//84 58//84 
f 60//85 49//85 51//85 
f 71//86 60//86 52//86 
f 53//87 71//87 52//87 
f 47//88 69//88 66//88 
f 72//89 73//89 74//89 
f 75//90 76//90 77//90 
f 78//91 79//91 80//91 
f 81//92 72//92 82//92 
f 83//93 84//93 85//93 80//93 79//93 
f 74//94 82//94 72//94 
f 86//95 85//95 76//95 
f 75//96 72//96 81//96 
f 81//97 87//97 85//97 
f 88//98 86//98 76//98 
f 85//99 86//99 88//99 
f 75//100 88//100 76//100 
f 81//101 88//101 75//101 
f 85//102 88//102 81//102 
f 89//2 90//2 91//2 92//2 93//2 94//2 73//2 
f 95//103 77//103 76//103 93//103 92//103 
f 84//104 96//104 76//104 85//104 
f 87//105 80//105 85//105 
f 78//106 83//106 79//106 
f 90//2 89//2 72//2 75//2 
f 72//107 89//107 73//107 
f 91//108 90//108 75//108 77//108 95//108 
f 83//109 74//109 84//109 
f 96//103 94//103 93//103 
f 91//108 95//108 92//108 
f 96//110 74//110 94//110 
f 78//111 87//111 97//111 
f 98//112 99//112 97//112 
f 74//113 99//113 82//113 
f 94//114 74//114 73//114 
f 84//115 74//115 96//115 
f 78//116 74//116 83//116 
f 97//117 74//117 78//117 
f 98//118 97//118 87//118 
f 74//119 97//119 99//119 
f 98//120 82//120 99//120 
f 87//121 78//121 80//121 
f 98//122 87//122 81//122 
f 82//123 98//123 81//123 
f 76//124 96//124 93//124 
# 25 polygons - 113 triangles

